<?xml version="1.0" encoding="utf-8"?>
<!-- Generator: Adobe Illustrator 24.0.1, SVG Export Plug-In . SVG Version: 6.00 Build 0)  -->
<svg version="1.1" xmlns="http://www.w3.org/2000/svg" xmlns:xlink="http://www.w3.org/1999/xlink" x="0px" y="0px"
	 viewBox="0 0 512 512" style="enable-background:new 0 0 512 512;" xml:space="preserve">
<style type="text/css">
	.st0{fill:#EAEAEA;}
	.st1{fill:#222323;}
	.st2{display:none;}
	.st3{display:inline;fill:#EAEAEA;}
	.st4{display:inline;fill:#FFFFFF;}
	.st5{display:inline;fill:#394A99;}
	.st6{display:inline;fill:#222323;}
	.st7{fill:#FFFFFF;}
	.st8{fill:#394A99;}
	.st9{font-family:'Roboto-Regular';}
	.st10{font-size:230.7827px;}
</style>
<g id="Слой_1">
	<polyline class="st0" points="77.8,442.9 179.5,42.9 271.1,172.6 462.7,57.5 275.6,471.5 198.6,326.6 77.8,442.9 	"/>
</g>
<g id="Слой_2">
	<polygon id="palm" class="st1" points="355.8,373.1 298,435.8 266.6,406.9 279.8,361.1 324.5,344.2 	"/>
	<polygon id="finger_x5F_1" class="st1" points="354.7,371.5 342.1,374 340,387 386.3,431.1 401.2,430.3 401,415.6 	"/>
	<g>
		<path id="face" class="st1" d="M136.5,149.5l5.4,174.7l44.3,20.5c27.9,12.9,60.3,11.9,87.3-2.7l43-23.2l-5.4-174.7L136.5,149.5z"
			/>
		<g id="eye_x5F_default" class="st2">
			<circle class="st3" cx="226.6" cy="234.2" r="43.7"/>
			
				<ellipse transform="matrix(0.9995 -3.088856e-02 3.088856e-02 0.9995 -7.3685 7.1217)" class="st4" cx="226.8" cy="242.1" rx="31.6" ry="35.8"/>
			<circle class="st5" cx="226.6" cy="234.2" r="22.5"/>
			<path class="st4" d="M233.1,228.9c-0.9,0-1.7,0.2-2.5,0.6c-0.4-1.3-1.4-2.3-2.8-2.2c-1.6,0.1-2.9,1.4-2.8,3c0,1.3,1,2.2,2.3,2.6
				c-0.4,0.9-0.7,1.9-0.7,3c0.1,3.7,3.2,6.6,6.9,6.5c3.7-0.1,6.6-3.2,6.5-6.9C239.9,231.7,236.8,228.8,233.1,228.9z"/>
			
				<rect x="155.9" y="177.5" transform="matrix(0.9995 -3.088856e-02 3.088856e-02 0.9995 -6.2203 7.1434)" class="st6" width="144.3" height="54.8"/>
		</g>
		<g id="eye_x5F_default_1_">
			<circle class="st0" cx="226.7" cy="234.2" r="43.7"/>
			
				<ellipse transform="matrix(0.9995 -3.088856e-02 3.088856e-02 0.9995 -7.3686 7.1247)" class="st7" cx="226.9" cy="242.1" rx="31.6" ry="35.8"/>
			<circle class="st8" cx="226.7" cy="234.2" r="22.5"/>
			<path class="st7" d="M233.2,228.9c-0.9,0-1.7,0.2-2.5,0.6c-0.4-1.3-1.4-2.3-2.8-2.2c-1.6,0.1-2.9,1.4-2.8,3c0,1.3,1,2.2,2.3,2.6
				c-0.4,0.9-0.7,1.9-0.7,3c0.1,3.7,3.2,6.6,6.9,6.5c3.7-0.1,6.6-3.2,6.5-6.9C240,231.7,236.9,228.8,233.2,228.9z"/>
		</g>
	</g>
	<text transform="matrix(0.9458 0.3248 -0.3248 0.9458 298.4347 249.844)" class="st9 st10">?</text>
</g>
</svg>
