<?xml version="1.0" encoding="utf-8"?>
<!-- Generator: Adobe Illustrator 24.0.1, SVG Export Plug-In . SVG Version: 6.00 Build 0)  -->
<svg version="1.1" xmlns="http://www.w3.org/2000/svg" xmlns:xlink="http://www.w3.org/1999/xlink" x="0px" y="0px"
	 viewBox="0 0 512 512" style="enable-background:new 0 0 512 512;" xml:space="preserve">
<style type="text/css">
	.st0{fill:#EAEAEA;}
	.st1{fill:#222323;}
	.st2{display:none;}
	.st3{display:inline;fill:#EAEAEA;}
	.st4{display:inline;fill:#FFFFFF;}
	.st5{display:inline;fill:#394A99;}
	.st6{display:inline;fill:#222323;}
	.st7{fill:#FFFFFF;}
	.st8{fill:#394A99;}
</style>
<g id="Слой_1">
	<polyline class="st0" points="77.8,442.9 179.5,42.9 271.1,172.6 462.7,57.5 275.6,471.5 198.6,326.6 77.8,442.9 	"/>
</g>
<g id="Слой_2">
	<polygon id="palm" class="st1" points="324.3,190.7 409.6,190.7 409.6,233.4 366.9,254.7 324.3,233.4 	"/>
	<polygon id="finger_x5F_1" class="st1" points="323.4,190.5 335,196.1 344.5,187 333.8,123.9 321.5,115.6 312.8,127.4 	"/>
	<polygon id="finger_x5F_2" class="st1" points="336.1,184.7 343.5,195.2 356.2,191.7 377.2,131.2 370.4,118 357.1,124.2 	"/>
	<g>
		<path id="face" class="st1" d="M121.9,168l28,172.5l46.6,14.6c29.4,9.2,61.3,4,86.3-14l39.6-28.6l-28-172.5L121.9,168z"/>
		<g id="eye_x5F_default" class="st2">
			<circle class="st3" cx="222.1" cy="240.3" r="43.7"/>
			
				<ellipse transform="matrix(0.9871 -0.1602 0.1602 0.9871 -36.8635 38.9984)" class="st4" cx="223.4" cy="248.1" rx="31.6" ry="35.8"/>
			<circle class="st5" cx="222.1" cy="240.3" r="22.5"/>
			<path class="st4" d="M227.9,234.2c-0.9,0.1-1.7,0.5-2.4,0.9c-0.5-1.2-1.7-2.1-3-1.9c-1.6,0.3-2.7,1.8-2.4,3.4
				c0.2,1.3,1.3,2.1,2.6,2.2c-0.3,1-0.4,2-0.3,3c0.6,3.6,4,6.1,7.7,5.5c3.6-0.6,6.1-4,5.5-7.7C235,236.1,231.5,233.6,227.9,234.2z"
				/>
			
				<rect x="147.7" y="183.7" transform="matrix(0.9871 -0.1602 0.1602 0.9871 -30.9803 37.9514)" class="st6" width="144.3" height="54.8"/>
		</g>
		<g id="eye_x5F_default_1_">
			<circle class="st0" cx="222.2" cy="240.3" r="43.7"/>
			
				<ellipse transform="matrix(0.9871 -0.1602 0.1602 0.9871 -36.861 39.0142)" class="st7" cx="223.5" cy="248.1" rx="31.6" ry="35.8"/>
			<circle class="st8" cx="222.2" cy="240.3" r="22.5"/>
			<path class="st7" d="M228,234.2c-0.9,0.1-1.7,0.5-2.4,0.9c-0.5-1.2-1.7-2.1-3-1.9c-1.6,0.3-2.7,1.8-2.4,3.4
				c0.2,1.3,1.3,2.1,2.6,2.2c-0.3,1-0.4,2-0.3,3c0.6,3.6,4,6.1,7.7,5.5c3.6-0.6,6.1-4,5.5-7.7C235.1,236.1,231.6,233.6,228,234.2z"
				/>
		</g>
	</g>
</g>
</svg>
