<svg xmlns="http://www.w3.org/2000/svg" viewBox="0 0 2264.89 2449.78"><defs><style>.cls-1{fill:#fff;}</style></defs><g id="Слой_2" data-name="Слой 2"><g id="Слой_3" data-name="Слой 3"><polygon class="cls-1" points="416 206.22 0 1191.11 337.78 917.33 0 2154.67 277.33 2190.22 647.11 718.22 483.56 643.56 693.33 74.67 416 206.22"/><polygon class="cls-1" points="956.44 156.44 753.78 533.33 1024 1045.33 693.33 1447.11 458.67 2449.78 999.11 2449.78 942.22 1521.78 1141.33 1269.33 1738.67 2368 2140.44 2243.56 1475.56 1404.44 1272.89 796.44 1749.33 74.67 1347.56 0 1120 579.56 970.67 384 956.44 156.44"/><polygon class="cls-1" points="1987.56 174.22 1457.78 792.89 1585.78 1224.89 2165.33 1749.33 2264.89 426.67 1987.56 174.22"/></g></g></svg>