<svg class="nadvo-te__toolbar-button-icon" version="1.1" xmlns="http://www.w3.org/2000/svg" xmlns:xlink="http://www.w3.org/1999/xlink" x="0px" y="0px" viewBox="0 0 64 64" xml:space="preserve">
	<path d="M8.2,64.3V-0.5h22.7C38.7-0.5,44.7,1,48.8,4c4.1,3,6.1,7.4,6.1,13.2c0,3.2-0.8,6-2.4,8.4c-1.6,2.4-3.9,4.2-6.8,5.3
		c3.3,0.8,5.9,2.5,7.8,5c1.9,2.5,2.9,5.6,2.9,9.2c0,6.2-2,10.9-6,14.1c-4,3.2-9.6,4.8-17,4.9H8.2z M21.6,26.6h9.9
		c6.7-0.1,10.1-2.8,10.1-8c0-2.9-0.9-5-2.6-6.3c-1.7-1.3-4.4-1.9-8.1-1.9h-9.3V26.6z M21.6,36.1v17.5H33c3.1,0,5.6-0.7,7.4-2.2
		c1.8-1.5,2.6-3.6,2.6-6.2c0-5.9-3.1-8.9-9.2-9H21.6z"/>
</svg>
