<?xml version="1.0" encoding="utf-8"?>
<!-- Generator: Adobe Illustrator 26.0.3, SVG Export Plug-In . SVG Version: 6.00 Build 0)  -->
<svg version="1.1" id="Слой_1" xmlns="http://www.w3.org/2000/svg" xmlns:xlink="http://www.w3.org/1999/xlink" x="0px" y="0px"
	 viewBox="0 0 64 64" style="enable-background:new 0 0 64 64;" xml:space="preserve">
<style type="text/css">
	.st0{enable-background:new    ;}
</style>
<g id="Слой_1_00000061436641951219226290000003305573373649714568_">
</g>
<g id="Слой_2_00000033369234411207672350000007696468170765221293_">
	<g class="st0">
		<path d="M32.4,50.8h-8.5V36H11.2v14.8H2.7V15.3h8.6v14.1h12.6V15.3h8.5V50.8z"/>
		<path d="M44.8,29.6h3.9c3.1,0,4.6-1.5,4.6-4.5c0-1.2-0.4-2.1-1.1-2.9c-0.7-0.7-1.8-1.1-3.1-1.1c-1.1,0-2,0.3-2.8,1
			c-0.8,0.6-1.2,1.4-1.2,2.4h-8.2c0-1.9,0.5-3.5,1.6-5s2.5-2.6,4.3-3.4c1.8-0.8,3.9-1.2,6.1-1.2c4,0,7.1,0.9,9.3,2.7
			c2.3,1.8,3.4,4.3,3.4,7.4c0,1.5-0.5,3-1.4,4.3c-0.9,1.4-2.3,2.5-4.1,3.3c1.9,0.7,3.4,1.7,4.4,3.1c1.1,1.4,1.6,3.1,1.6,5.2
			c0,3.2-1.2,5.7-3.7,7.6c-2.4,1.9-5.6,2.9-9.6,2.9c-2.3,0-4.5-0.4-6.5-1.3c-2-0.9-3.5-2.1-4.5-3.7c-1-1.6-1.5-3.4-1.5-5.4h8.3
			c0,1.1,0.4,2,1.3,2.8c0.9,0.8,2,1.2,3.2,1.2c1.4,0,2.6-0.4,3.5-1.2s1.3-1.8,1.3-3.1c0-1.8-0.4-3.1-1.3-3.8
			c-0.9-0.7-2.1-1.1-3.7-1.1h-4V29.6z"/>
	</g>
</g>
</svg>
