<?xml version="1.0" encoding="utf-8"?>
<!-- Generator: Adobe Illustrator 26.0.3, SVG Export Plug-In . SVG Version: 6.00 Build 0)  -->
<svg version="1.1" xmlns="http://www.w3.org/2000/svg" xmlns:xlink="http://www.w3.org/1999/xlink" x="0px" y="0px"
	 viewBox="0 0 64 64" style="enable-background:new 0 0 64 64;" xml:space="preserve">
<g id="Слой_1">
</g>
<g id="Слой_2">
	<g>
		<path d="M32.4,50.8h-8.5V36H11.2v14.8H2.7V15.3h8.6v14.1h12.6V15.3h8.5V50.8z"/>
		<path d="M57.1,14.8v6.5h-0.4c-3.1,0-5.6,0.7-7.6,2.2S46,27,45.5,29.6c1.9-1.8,4.2-2.7,7-2.7c3.1,0,5.5,1.1,7.3,3.4
			c1.8,2.2,2.7,5.2,2.7,8.8c0,2.3-0.5,4.3-1.6,6.2c-1.1,1.9-2.6,3.4-4.5,4.4c-1.9,1.1-4,1.6-6.4,1.6c-2.5,0-4.8-0.6-6.8-1.7
			c-2-1.1-3.5-2.8-4.6-4.9c-1.1-2.1-1.7-4.6-1.7-7.4V34c0-3.7,0.8-6.9,2.4-9.9s3.8-5.2,6.7-6.9c2.9-1.7,6.1-2.5,9.7-2.5H57.1z
			 M49.7,33.1c-1.1,0-2,0.3-2.7,0.8c-0.7,0.5-1.3,1.1-1.6,1.9v2.5c0,4.5,1.6,6.7,4.7,6.7c1.3,0,2.3-0.6,3.1-1.7
			c0.8-1.1,1.3-2.5,1.3-4.2c0-1.7-0.4-3.2-1.3-4.3C52.2,33.7,51.1,33.1,49.7,33.1z"/>
	</g>
</g>
</svg>
