<?xml version="1.0" encoding="utf-8"?>
<!-- Generator: Adobe Illustrator 26.0.3, SVG Export Plug-In . SVG Version: 6.00 Build 0)  -->
<svg version="1.1" id="Слой_1" xmlns="http://www.w3.org/2000/svg" xmlns:xlink="http://www.w3.org/1999/xlink" x="0px" y="0px"
	 viewBox="0 0 64 64" style="enable-background:new 0 0 64 64;" xml:space="preserve">
<style type="text/css">
	.st0{enable-background:new    ;}
</style>
<g id="Слой_1_00000008112788203273059420000001463360169638745015_">
</g>
<g id="Слой_2_00000088839010249708768140000016793534251962435991_">
	<g class="st0">
		<path d="M32.4,50.8h-8.5V36H11.2v14.8H2.7V15.3h8.6v14.1h12.6V15.3h8.5V50.8z"/>
		<path d="M62,50.8H37.3v-5.4l11.4-12c2.8-3.2,4.2-5.7,4.2-7.6c0-1.5-0.3-2.7-1-3.5c-0.7-0.8-1.6-1.2-2.9-1.2c-1.3,0-2.3,0.5-3,1.6
			s-1.2,2.4-1.2,4h-8.2c0-2.2,0.5-4.2,1.6-6c1.1-1.8,2.6-3.3,4.5-4.3c1.9-1,4.1-1.6,6.5-1.6c3.8,0,6.8,0.9,8.9,2.7
			c2.1,1.8,3.1,4.3,3.1,7.6c0,1.4-0.3,2.8-0.8,4.1s-1.3,2.7-2.4,4.2c-1.1,1.5-2.9,3.4-5.3,5.8l-4.6,5.3h14V50.8z"/>
	</g>
</g>
</svg>
