<?xml version="1.0" encoding="utf-8"?>
<!-- Generator: Adobe Illustrator 26.0.3, SVG Export Plug-In . SVG Version: 6.00 Build 0)  -->
<svg version="1.1" id="Слой_1" xmlns="http://www.w3.org/2000/svg" xmlns:xlink="http://www.w3.org/1999/xlink" x="0px" y="0px"
	 viewBox="0 0 64 64" style="enable-background:new 0 0 64 64;" xml:space="preserve">
<style type="text/css">
	.st0{enable-background:new    ;}
</style>
<g id="Слой_1_00000096744340380098788730000017935515792693175195_">
</g>
<g id="Слой_2_00000117669881199711051070000017644079345133938608_">
	<g class="st0">
		<path d="M32.4,50.8h-8.5V36H11.2v14.8H2.7V15.3h8.6v14.1h12.6V15.3h8.5V50.8z"/>
		<path d="M37.7,33.4l2.2-18.2h20.7v6.4H46.6l-0.8,7.1c0.6-0.3,1.4-0.6,2.3-0.9c1-0.3,1.9-0.4,2.8-0.4c3.5,0,6.2,1,8.1,3.1
			c1.9,2.1,2.8,5,2.8,8.8c0,2.3-0.5,4.3-1.5,6.2c-1,1.8-2.4,3.3-4.3,4.3c-1.8,1-4,1.5-6.5,1.5c-2.2,0-4.3-0.5-6.3-1.4
			c-2-0.9-3.5-2.2-4.6-3.8c-1.1-1.6-1.7-3.4-1.6-5.4h8.2c0.1,1.3,0.5,2.3,1.2,3.1s1.7,1.1,3,1.1c2.8,0,4.1-2,4.1-6.1
			c0-3.8-1.7-5.7-5.1-5.7c-1.9,0-3.3,0.6-4.3,1.8L37.7,33.4z"/>
	</g>
</g>
</svg>
