<svg version="1.1" class="nadvo-te__toolbar-button-icon" xmlns="http://www.w3.org/2000/svg" xmlns:xlink="http://www.w3.org/1999/xlink" x="0px" y="0px" viewBox="0 0 64 64" xml:space="preserve">
	<path d="M32,0C14.3,0,0,14.3,0,32c0,17.7,14.3,32,32,32s32-14.3,32-32C64,14.3,49.7,0,32,0z M32,59.5C16.8,59.5,4.5,47.2,4.5,32
		C4.5,16.8,16.8,4.5,32,4.5S59.5,16.8,59.5,32C59.5,47.2,47.2,59.5,32,59.5z"/>
	<path d="M32,13.9C22,13.9,13.9,22,13.9,32c0,10,8.1,18.1,18.1,18.1S50.1,42,50.1,32C50.1,22,42,13.9,32,13.9z M36.5,44
		c-3.9,0-7.1-3.2-7.1-7.1c0,0,0-0.1,0-0.1c-2.9-0.5-5.2-3-5.2-6c0-3.4,2.7-6.1,6.1-6.1c3.1,0,5.6,2.2,6,5.2c0,0,0.1,0,0.1,0
		c3.9,0,7.1,3.2,7.1,7.1S40.4,44,36.5,44z"/>
</svg>
