<?xml version="1.0" encoding="utf-8"?>
<!-- Generator: Adobe Illustrator 26.0.3, SVG Export Plug-In . SVG Version: 6.00 Build 0)  -->
<svg version="1.1" xmlns="http://www.w3.org/2000/svg" xmlns:xlink="http://www.w3.org/1999/xlink" x="0px" y="0px"
	 viewBox="0 0 64 64" style="enable-background:new 0 0 64 64;" xml:space="preserve">
<g id="Слой_1">
</g>
<g id="Слой_2">
	<path d="M15.2,3.4C6.8,3.4,0,10.2,0,18.6s6.8,15.2,15.2,15.2c0.6,0,1.2,0,1.8-0.1c1,5.2,0.9,10.5-0.1,15.7l-2.3,11.3l4.9-6.1
		c4.5-5.6,6-12.3,8.5-19.5l0.7-2.3c1.2-3.7,1.7-7.5,1.7-11.3v-2.8C30.4,10.2,23.6,3.4,15.2,3.4z"/>
	<path d="M48.8,3.4c-8.4,0-15.2,6.8-15.2,15.2s6.8,15.2,15.2,15.2c0.6,0,1.2,0,1.8-0.1c1,5.2,0.9,10.5-0.1,15.7l-2.3,11.3l4.9-6.1
		c4.5-5.6,6-12.3,8.5-19.5l0.7-2.3c1.2-3.7,1.7-7.5,1.7-11.3v-2.8C64,10.2,57.2,3.4,48.8,3.4z"/>
</g>
</svg>
