<svg version="1.1" class="nadvo-te__toolbar-button-icon"  xmlns="http://www.w3.org/2000/svg" xmlns:xlink="http://www.w3.org/1999/xlink" x="0px" y="0px" viewBox="0 0 64 64" xml:space="preserve">
	<path d="M50.9,0v35.4c0,4.9-1.6,8.9-4.6,12.1s-7.2,4.9-12.5,5.3l-1.8,0.1c-5.7,0-10.2-1.5-13.6-4.6s-5.1-7.3-5.2-12.7V0h6.8v35.3
		c0,3.8,1,6.7,3.1,8.8s5,3.1,8.9,3.1c3.9,0,6.9-1,8.9-3.1c2.1-2.1,3.1-5,3.1-8.8V0H50.9z"/>
	<rect x="28.6" y="41.7" transform="matrix(6.123234e-17 -1 1 6.123234e-17 -28.6001 92.6002)" width="6.8" height="37.7"/>
</svg>
